<svg width="17" height="18" viewBox="0 0 17 18" fill="none" xmlns="http://www.w3.org/2000/svg">
<path d="M8.3585 12.4922C8.3753 12.5146 8.39678 12.5327 8.4213 12.5452C8.44581 12.5577 8.47273 12.5641 8.5 12.5641C8.52727 12.5641 8.55419 12.5577 8.5787 12.5452C8.60322 12.5327 8.6247 12.5146 8.6415 12.4922L11.1571 9.17109C11.2492 9.04922 11.1661 8.86875 11.0156 8.86875H9.35127V0.9375C9.35127 0.834375 9.27041 0.75 9.17158 0.75H7.82393C7.7251 0.75 7.64424 0.834375 7.64424 0.9375V8.86641H5.98438C5.83389 8.86641 5.75078 9.04688 5.84287 9.16875L8.3585 12.4922ZM16.7207 11.6719H15.373C15.2742 11.6719 15.1934 11.7563 15.1934 11.8594V15.4688H1.80664V11.8594C1.80664 11.7563 1.72578 11.6719 1.62695 11.6719H0.279297C0.180469 11.6719 0.0996094 11.7563 0.0996094 11.8594V16.5C0.0996094 16.9148 0.420801 17.25 0.818359 17.25H16.1816C16.5792 17.25 16.9004 16.9148 16.9004 16.5V11.8594C16.9004 11.7563 16.8195 11.6719 16.7207 11.6719Z" fill="#1D8CD4"/>
</svg>
