<svg width="8" height="8" viewBox="0 0 8 8" fill="none" xmlns="http://www.w3.org/2000/svg">
<path fill-rule="evenodd" clip-rule="evenodd" d="M3.6002 0.800781C3.52593 0.800821 3.45314 0.821534 3.38999 0.860602C3.32683 0.89967 3.27579 0.955549 3.2426 1.02198L2.953 1.60078H1.6002C1.49411 1.60078 1.39237 1.64292 1.31735 1.71794C1.24234 1.79295 1.2002 1.89469 1.2002 2.00078C1.2002 2.10687 1.24234 2.20861 1.31735 2.28362C1.39237 2.35864 1.49411 2.40078 1.6002 2.40078V6.40078C1.6002 6.61295 1.68448 6.81644 1.83451 6.96647C1.98454 7.1165 2.18802 7.20078 2.4002 7.20078H5.6002C5.81237 7.20078 6.01585 7.1165 6.16588 6.96647C6.31591 6.81644 6.4002 6.61295 6.4002 6.40078V2.40078C6.50628 2.40078 6.60802 2.35864 6.68304 2.28362C6.75805 2.20861 6.8002 2.10687 6.8002 2.00078C6.8002 1.89469 6.75805 1.79295 6.68304 1.71794C6.60802 1.64292 6.50628 1.60078 6.4002 1.60078H5.0474L4.7578 1.02198C4.7246 0.955549 4.67356 0.89967 4.61041 0.860602C4.54725 0.821534 4.47446 0.800821 4.4002 0.800781H3.6002ZM2.8002 3.20078C2.8002 3.09469 2.84234 2.99295 2.91735 2.91794C2.99237 2.84292 3.09411 2.80078 3.2002 2.80078C3.30628 2.80078 3.40802 2.84292 3.48304 2.91794C3.55805 2.99295 3.6002 3.09469 3.6002 3.20078V5.60078C3.6002 5.70687 3.55805 5.80861 3.48304 5.88362C3.40802 5.95864 3.30628 6.00078 3.2002 6.00078C3.09411 6.00078 2.99237 5.95864 2.91735 5.88362C2.84234 5.80861 2.8002 5.70687 2.8002 5.60078V3.20078ZM4.8002 2.80078C4.69411 2.80078 4.59237 2.84292 4.51735 2.91794C4.44234 2.99295 4.4002 3.09469 4.4002 3.20078V5.60078C4.4002 5.70687 4.44234 5.80861 4.51735 5.88362C4.59237 5.95864 4.69411 6.00078 4.8002 6.00078C4.90628 6.00078 5.00802 5.95864 5.08304 5.88362C5.15805 5.80861 5.2002 5.70687 5.2002 5.60078V3.20078C5.2002 3.09469 5.15805 2.99295 5.08304 2.91794C5.00802 2.84292 4.90628 2.80078 4.8002 2.80078Z" fill="white"/>
</svg>
