<svg width="220" height="220" viewBox="0 0 220 220" fill="none" xmlns="http://www.w3.org/2000/svg">
<path d="M217.274 110C217.274 93.5749 213.502 77.369 206.249 62.6317C198.996 47.8945 188.456 35.0195 175.441 24.9995C162.426 14.9794 147.284 8.08189 131.182 4.8386C115.08 1.59532 98.4485 2.09292 82.5693 6.29303C66.6901 10.4932 51.9874 18.2836 39.5947 29.0638C27.2021 39.844 17.4504 53.3261 11.0916 68.4706C4.7327 83.6151 1.93647 100.018 2.91844 116.413C3.90041 132.809 8.63434 148.761 16.7553 163.038L44.858 147.053C39.1846 137.079 35.8774 125.935 35.1913 114.481C34.5053 103.026 36.4588 91.5672 40.9012 80.987C45.3436 70.4068 52.1562 60.9881 60.8139 53.4569C69.4716 45.9257 79.7431 40.4831 90.8366 37.5489C101.93 34.6146 113.549 34.267 124.798 36.5328C136.047 38.7986 146.626 43.6173 155.718 50.6175C164.811 57.6176 172.174 66.6122 177.241 76.9079C182.308 87.2036 184.943 98.5253 184.943 110H217.274Z" fill="#C8CDFF"/>
<path d="M211.692 144.152C216.929 128.558 218.51 111.968 216.312 95.6661C214.114 79.3637 208.196 63.7852 199.016 50.1351C189.836 36.485 177.64 25.1289 163.37 16.9449C149.101 8.76083 133.14 3.96812 116.723 2.93728L114.727 34.7218C126.27 35.4466 137.493 38.8164 147.526 44.5708C157.559 50.3252 166.135 58.3099 172.589 67.9076C179.044 77.5054 183.205 88.459 184.75 99.9215C186.296 111.384 185.184 123.049 181.502 134.013L211.692 144.152Z" fill="#5B6AD0"/>
<path d="M5.50443 134.255C10.8353 157.222 23.584 177.792 41.7792 192.786C59.9743 207.78 82.6024 216.362 106.165 217.205C129.727 218.048 152.91 211.105 172.13 197.45C191.35 183.795 205.537 164.188 212.495 141.661L181.76 132.167C176.888 147.938 166.956 161.666 153.499 171.226C140.043 180.787 123.811 185.648 107.315 185.058C90.8181 184.467 74.9755 178.459 62.2364 167.961C49.4974 157.464 40.5717 143.061 36.8393 126.982L5.50443 134.255Z" fill="#8594EC"/>
</svg>
