<svg width="28" height="28" viewBox="0 0 28 28" fill="none" xmlns="http://www.w3.org/2000/svg">
<path d="M28 5.6002C28 4.82702 27.3732 4.2002 26.6 4.2002H1.4C0.626829 4.2002 0 4.82702 0 5.6002C0 6.37337 0.626829 7.0002 1.4 7.0002H26.6C27.3732 7.0002 28 6.37331 28 5.6002ZM1.4 12.6002H21.6C22.3732 12.6002 23 13.2271 23 14.0002C23 14.7734 22.3732 15.4002 21.6 15.4002H1.4C0.626829 15.4002 0 14.7734 0 14.0002C0 13.2271 0.626829 12.6002 1.4 12.6002ZM1.4 21.0002H25C25.7731 21.0002 26.4 21.627 26.4 22.4002C26.4 23.1733 25.7731 23.8002 25 23.8002H1.4C0.626829 23.8002 0 23.1733 0 22.4002C0 21.627 0.626829 21.0002 1.4 21.0002Z" fill="#878F97"/>
</svg>
