<svg width="19" height="19" viewBox="0 0 19 19" fill="none" xmlns="http://www.w3.org/2000/svg">
<path d="M16.4766 14.6953H3.71094V3.11719C3.71094 3.03555 3.64414 2.96875 3.5625 2.96875H2.52344C2.4418 2.96875 2.375 3.03555 2.375 3.11719V15.8828C2.375 15.9645 2.4418 16.0312 2.52344 16.0312H16.4766C16.5582 16.0312 16.625 15.9645 16.625 15.8828V14.8438C16.625 14.7621 16.5582 14.6953 16.4766 14.6953ZM5.04688 13.5078H14.9922C15.0738 13.5078 15.1406 13.441 15.1406 13.3594V5.26953C15.1406 5.13594 14.9792 5.071 14.8864 5.16377L10.9844 9.06582L8.65762 6.76504C8.62972 6.73741 8.59204 6.72192 8.55278 6.72192C8.51352 6.72192 8.47585 6.73741 8.44795 6.76504L4.94111 10.283C4.92749 10.2967 4.91671 10.3129 4.90938 10.3307C4.90206 10.3485 4.89834 10.3676 4.89844 10.3869V13.3594C4.89844 13.441 4.96523 13.5078 5.04688 13.5078Z" fill="#0079B4"/>
</svg>
