<svg width="21" height="20" viewBox="0 0 21 20" fill="none" xmlns="http://www.w3.org/2000/svg">
<path d="M18.8873 16.9331L15.8931 14.0815C18.3971 11.1733 18.2228 6.86475 15.3599 4.14014C12.3248 1.24756 7.3947 1.24756 4.34724 4.14014C1.31003 7.04248 1.31003 11.7378 4.34724 14.6284C7.20808 17.355 11.7321 17.521 14.7857 15.1362L17.7799 17.9878C17.8455 18.0425 17.9501 18.0425 18.0054 17.9878L18.8873 17.1479C18.9447 17.0952 18.9447 16.9956 18.8873 16.9331ZM14.273 13.5933C11.8367 15.9116 7.89099 15.9116 5.45466 13.5933C3.02039 11.2729 3.02039 7.51514 5.45466 5.19482C7.89099 2.87647 11.8367 2.87647 14.273 5.19482C16.7073 7.51514 16.7073 11.2729 14.273 13.5933Z" fill="#1D8CD4"/>
</svg>
