<svg width="38" height="38" viewBox="0 0 38 38" fill="none" xmlns="http://www.w3.org/2000/svg">
<circle cx="19" cy="19" r="19" fill="#0F75BC" fill-opacity="0.12"/>
<path d="M21.5333 12.4737C21.26 12.2003 20.7866 12.387 20.7866 12.767V15.0937C20.7866 16.067 21.6133 16.8737 22.62 16.8737C23.2533 16.8803 24.1333 16.8803 24.8866 16.8803C25.2666 16.8803 25.4666 16.4337 25.2 16.167C24.24 15.2003 22.52 13.4603 21.5333 12.4737Z" fill="#0F75BC"/>
<path d="M24.6665 17.794H22.7398C21.1598 17.794 19.8732 16.5073 19.8732 14.9273V13.0007C19.8732 12.634 19.5732 12.334 19.2065 12.334H16.3798C14.3265 12.334 12.6665 13.6673 12.6665 16.0473V21.954C12.6665 24.334 14.3265 25.6673 16.3798 25.6673H21.6198C23.6732 25.6673 25.3332 24.334 25.3332 21.954V18.4607C25.3332 18.094 25.0332 17.794 24.6665 17.794ZM18.6665 22.834H15.9998C15.7265 22.834 15.4998 22.6073 15.4998 22.334C15.4998 22.0607 15.7265 21.834 15.9998 21.834H18.6665C18.9398 21.834 19.1665 22.0607 19.1665 22.334C19.1665 22.6073 18.9398 22.834 18.6665 22.834ZM19.9998 20.1673H15.9998C15.7265 20.1673 15.4998 19.9407 15.4998 19.6673C15.4998 19.394 15.7265 19.1673 15.9998 19.1673H19.9998C20.2732 19.1673 20.4998 19.394 20.4998 19.6673C20.4998 19.9407 20.2732 20.1673 19.9998 20.1673Z" fill="#0F75BC"/>
</svg>
